<svg id="Layer_1" data-name="Layer 1" xmlns="http://www.w3.org/2000/svg" viewBox="0 0 86.3 75.66"><title>logotipo</title><path d="M719.72,278a2.27,2.27,0,0,1,.88,2,3.46,3.46,0,0,1-.88,2.42,4.19,4.19,0,0,1-2.48,1.2l-1.67.26v2.4l-1.9.3v-8.4l3.57-.56A3.28,3.28,0,0,1,719.72,278Zm-1.35,3.5a1.54,1.54,0,0,0,.43-1.14,1.07,1.07,0,0,0-.43-1,1.63,1.63,0,0,0-1.23-.16l-1.57.25v2.84l1.57-.25A2.08,2.08,0,0,0,718.37,281.51Z" transform="translate(-706 -260.34)"/><path d="M722.29,276.84l6.4-1v1.57l-4.5.71v1.82l4-.64v1.58l-4,.64v1.86l4.63-.74v1.58l-6.53,1Z" transform="translate(-706 -260.34)"/><path d="M736.64,275.1a3.08,3.08,0,0,1,1.57,1.24,3.79,3.79,0,0,1,.56,2.09,4.66,4.66,0,0,1-.57,2.27,5.08,5.08,0,0,1-1.59,1.74,5.73,5.73,0,0,1-2.33.9l-3.49.55v-8.4l3.56-.56A4.43,4.43,0,0,1,736.64,275.1Zm-1,6.1a2.91,2.91,0,0,0,.87-1.06,3.08,3.08,0,0,0,.31-1.39,2.5,2.5,0,0,0-.33-1.31,1.9,1.9,0,0,0-.9-.78,2.39,2.39,0,0,0-1.29-.13l-1.63.26V282l1.72-.27A2.84,2.84,0,0,0,735.65,281.2Z" transform="translate(-706 -260.34)"/><path d="M745.66,281.54l-1.34-2.19-.18,0-1.75.28v2.4l-1.9.3V274l3.65-.58a3.41,3.41,0,0,1,2.55.36,2.26,2.26,0,0,1,.9,2,3.56,3.56,0,0,1-.41,1.72,3.09,3.09,0,0,1-1.17,1.24l1.79,2.49Zm-3.27-3.47,1.75-.28a2.13,2.13,0,0,0,1.22-.55,1.59,1.59,0,0,0,.43-1.15,1.11,1.11,0,0,0-.43-1,1.71,1.71,0,0,0-1.22-.16l-1.75.28Z" transform="translate(-706 -260.34)"/><path d="M755.87,272a3.36,3.36,0,0,1,1.62,1.3,3.71,3.71,0,0,1,.6,2.11,4.7,4.7,0,0,1-.6,2.3,5.33,5.33,0,0,1-1.62,1.82,5.42,5.42,0,0,1-2.3.94,4.35,4.35,0,0,1-2.29-.21,3.37,3.37,0,0,1-1.62-1.3,3.74,3.74,0,0,1-.6-2.12,4.67,4.67,0,0,1,.6-2.3,5.2,5.2,0,0,1,1.62-1.81,5.5,5.5,0,0,1,2.29-.93A4.48,4.48,0,0,1,755.87,272Zm-3.57,2a3.42,3.42,0,0,0-.95,1.12,3,3,0,0,0-.34,1.4,2.41,2.41,0,0,0,.35,1.3,2.16,2.16,0,0,0,.95.82,2.24,2.24,0,0,0,1.29.16,2.88,2.88,0,0,0,1.28-.56,3.36,3.36,0,0,0,.92-1.12,3.05,3.05,0,0,0,.34-1.41,2.39,2.39,0,0,0-.34-1.29,2,2,0,0,0-.92-.82,2.21,2.21,0,0,0-1.28-.16A3,3,0,0,0,752.3,274Z" transform="translate(-706 -260.34)"/><path d="M713.67,300.6l1.9-.3v3.51l3.81-.61v-3.5l1.89-.3v8.4l-1.89.3v-3.31l-3.81.6v3.31l-1.9.3Z" transform="translate(-706 -260.34)"/><path d="M723.6,299l6.39-1v1.57l-4.49.71v1.83l4-.64v1.57l-4,.64v1.86l4.63-.73v1.57l-6.53,1Z" transform="translate(-706 -260.34)"/><path d="M737.9,296.77l1.8-.29v8.4l-1.73.28-4.06-4.76v5.4l-1.82.29v-8.4l1.73-.28,4.08,4.78Z" transform="translate(-706 -260.34)"/><path d="M747.19,303.7l-1.33-2.19-.18,0-1.75.28v2.4l-1.9.3v-8.4l3.65-.58a3.49,3.49,0,0,1,2.54.36,2.29,2.29,0,0,1,.9,2,3.58,3.58,0,0,1-.4,1.72,3.31,3.31,0,0,1-1.17,1.24l1.79,2.49Zm-3.26-3.47,1.75-.28a2.11,2.11,0,0,0,1.22-.56,1.57,1.57,0,0,0,.42-1.14,1.1,1.1,0,0,0-.42-1,1.67,1.67,0,0,0-1.22-.16l-1.75.27Z" transform="translate(-706 -260.34)"/><path d="M751.2,294.66l1.89-.3v8.4l-1.89.3Z" transform="translate(-706 -260.34)"/><path d="M764.3,302a4.34,4.34,0,0,1-1.12.86,4.21,4.21,0,0,1-1.25.45,2.4,2.4,0,0,1-1.53-.24,2.83,2.83,0,0,1-1.15-1.15,4.44,4.44,0,0,1-2.26-.24,3.39,3.39,0,0,1-1.58-1.31,3.85,3.85,0,0,1-.58-2.1,4.66,4.66,0,0,1,.6-2.29,5.11,5.11,0,0,1,1.62-1.81,5.24,5.24,0,0,1,2.3-.93,4.25,4.25,0,0,1,2.29.2,3.31,3.31,0,0,1,1.62,1.3,3.67,3.67,0,0,1,.6,2.1,4.8,4.8,0,0,1-.78,2.62,5.33,5.33,0,0,1-2.05,1.89,1.3,1.3,0,0,0,1.11.42,1.89,1.89,0,0,0,.69-.28,5.62,5.62,0,0,0,.79-.61Zm-7.17-2.74a2.12,2.12,0,0,0,1,.83,2.25,2.25,0,0,0,1.29.15,2.86,2.86,0,0,0,1.28-.55,3.24,3.24,0,0,0,.92-1.12,3.06,3.06,0,0,0,.34-1.42,2.39,2.39,0,0,0-.34-1.29,2.09,2.09,0,0,0-.92-.82,2.29,2.29,0,0,0-1.28-.15,2.89,2.89,0,0,0-1.3.56,3.19,3.19,0,0,0-.94,1.12,2.88,2.88,0,0,0-.35,1.4A2.4,2.4,0,0,0,757.13,299.26Z" transform="translate(-706 -260.34)"/><path d="M767.92,298.37a1.61,1.61,0,0,0,1.36.3,2.11,2.11,0,0,0,1.32-.72,2.28,2.28,0,0,0,.49-1.51v-4.93l1.9-.3v4.93a4.32,4.32,0,0,1-.45,2,3.9,3.9,0,0,1-1.29,1.45,4.81,4.81,0,0,1-2,.75,4.05,4.05,0,0,1-2-.12,2.43,2.43,0,0,1-1.31-1,3.49,3.49,0,0,1-.46-1.84v-4.94l1.9-.3V297A1.68,1.68,0,0,0,767.92,298.37Z" transform="translate(-706 -260.34)"/><path d="M775.17,290.86l6.4-1v1.57l-4.5.72V294l4-.64v1.57l-4,.64v1.86l4.63-.73v1.57l-6.53,1Z" transform="translate(-706 -260.34)"/><path d="M790.2,279.54l-26,4.5,3.71-21.61.36-2.09-2.11.36L706.75,271H706v65h2V318.81l77.78-13.48,2.1-.36.36-2.09,3.7-21.61h0l.35-2.1ZM708,272.81l57.82-10-3.71,21.62L708,293.78Zm78.14,30.43L708,316.78v-21l53.75-9.31,2.1-.37,26-4.5Z" transform="translate(-706 -260.34)"/></svg>